<svg width="67" height="27" viewBox="0 0 67 27" fill="none" xmlns="http://www.w3.org/2000/svg">
<path d="M11.74 19.67C10.99 20.69 10 21.44 8.53 21.44C6.79 21.44 5.5 20.33 5.14 18.62H15.58V17.21C15.58 12.56 12.94 9.56 8.74 9.56C4.24 9.56 0.64 12.56 0.64 17.21C0.64 21.86 4.24 24.86 8.74 24.86C11.08 24.86 13.45 23.81 14.89 21.98L11.74 19.67ZM5.14 15.56C5.26 14.15 6.34 12.8 8.32 12.8C9.94 12.8 11.11 14.06 11.08 15.56H5.14ZM27.4666 24.5H31.6066V17.09C31.6066 12.23 30.1966 9.56 24.9466 9.56C22.5766 9.56 20.1766 10.34 18.5266 11.9L20.9266 14.36C21.8866 13.28 23.1166 12.62 24.5866 12.62C26.1466 12.62 27.4666 13.64 27.4666 15.23C23.7166 15.23 17.5966 15.32 17.5966 20.36C17.5966 23.3 20.0566 24.86 22.7866 24.86C24.6166 24.86 26.4166 24.23 27.4066 22.67H27.4666V24.5ZM27.4666 18.11V19.07C27.4666 20.87 25.8166 21.8 24.0466 21.8C23.0566 21.8 21.9166 21.29 21.9166 20.21C21.9166 18.23 24.9766 18.11 26.3566 18.11H27.4666ZM62.8338 19.67C62.0838 20.69 61.0938 21.44 59.6238 21.44C57.8838 21.44 56.5938 20.33 56.2338 18.62H66.6738V17.21C66.6738 12.56 64.0338 9.56 59.8338 9.56C55.3338 9.56 51.7338 12.56 51.7338 17.21C51.7338 21.86 55.3338 24.86 59.8338 24.86C62.1738 24.86 64.5438 23.81 65.9838 21.98L62.8338 19.67ZM56.2338 15.56C56.3538 14.15 57.4338 12.8 59.4137 12.8C61.0338 12.8 62.2038 14.06 62.1738 15.56H56.2338Z" fill="black"/>
<path d="M42.6798 0.799999H40.6998V2.9C37.1598 3.32 33.8598 5.6 33.8598 9.38C33.8598 12.41 35.4798 14.03 38.5098 14.99L40.6998 15.65V20.72C39.0798 20.6 37.5198 20.15 36.4698 18.86L33.2898 22.43C35.2698 24.23 38.0598 24.86 40.6998 24.86V26.96H42.6798V24.86C46.6098 24.47 49.9098 22.28 49.9098 18.08C49.9098 15.29 48.1998 13.43 45.5598 12.65L42.6798 11.81V7.04C43.9698 7.1 45.2598 7.46 46.2198 8.3L49.0998 4.79C47.3598 3.41 44.8398 2.9 42.6798 2.9V0.799999ZM40.6998 11.33C40.1898 11.15 38.5398 10.97 38.5398 9.17C38.5398 7.91 39.5898 7.37 40.6998 7.13V11.33ZM42.6798 16.16L43.2498 16.37C44.2998 16.76 45.2298 17.15 45.2298 18.44C45.2298 19.82 43.9098 20.42 42.6798 20.66V16.16Z" fill="#1CB33F"/>
</svg>
