<svg width="71" height="70" viewBox="0 0 71 70" fill="none" xmlns="http://www.w3.org/2000/svg">
<path d="M35.5 0C39.7131 0 43.7513 0.74535 47.4921 2.10658L43.3104 6.28474C36.982 4.56392 30.2623 4.98237 24.1963 7.47502C18.1302 9.96766 13.0578 14.3948 9.76767 20.068C6.47758 25.7413 5.15425 32.3427 6.00343 38.8457C6.85262 45.3487 9.82675 51.3889 14.4633 56.027C19.0999 60.6651 25.1391 63.6413 31.6418 64.4927C38.1446 65.344 44.7464 64.0229 50.4207 60.7347C56.095 57.4465 60.5239 52.3756 63.0186 46.3103C65.5132 40.2451 65.9339 33.5256 64.2152 27.1966L68.3934 23.0184C69.7909 26.8583 70.5039 30.9137 70.5 35C70.5 54.3301 54.8301 70 35.5 70C16.1699 70 0.5 54.3301 0.5 35C0.5 15.6699 16.1699 0 35.5 0ZM35.5 14.0042C37.273 14.0034 39.039 14.2268 40.7559 14.6691V20.1525C37.3887 18.9612 33.7165 18.95 30.3422 20.1208C26.9678 21.2916 24.0917 23.5748 22.1859 26.5957C20.2801 29.6165 19.458 33.1954 19.8543 36.7451C20.2507 40.2948 21.842 43.6043 24.3672 46.1303C26.8923 48.6564 30.2012 50.2489 33.7507 50.6466C37.3003 51.0443 40.8795 50.2234 43.9011 48.3187C46.9226 46.4141 49.2068 43.5388 50.3788 40.1648C51.5509 36.7909 51.5411 33.1187 50.351 29.751H55.8344C56.9291 33.9908 56.6708 38.4668 55.0957 42.5525C53.5206 46.6382 50.7074 50.1292 47.0499 52.537C43.3925 54.9447 39.0737 56.1486 34.6982 55.9803C30.3226 55.8119 26.1091 54.2797 22.6474 51.5981C19.1858 48.9165 16.6491 45.2197 15.3926 41.025C14.136 36.8303 14.2224 32.3478 15.6396 28.2046C17.0568 24.0615 19.734 20.4651 23.2964 17.9189C26.8588 15.3726 31.1282 14.0039 35.507 14.0042H35.5ZM42.4986 35C42.4981 36.5042 42.013 37.9682 41.1152 39.1751C40.2173 40.382 38.9545 41.2675 37.5139 41.7003C36.0734 42.1332 34.5316 42.0904 33.1173 41.5783C31.7029 41.0661 30.4912 40.112 29.6617 38.8572C28.8322 37.6023 28.4291 36.1136 28.512 34.6117C28.595 33.1098 29.1597 31.6746 30.1223 30.5188C31.085 29.3629 32.3945 28.548 33.8566 28.1948C35.3188 27.8416 36.8558 27.9689 38.2399 28.5578L44.2587 22.539L44.2552 11.3797C44.2559 10.6839 44.5328 10.0168 45.0251 9.52509L53.7733 0.776845C54.1404 0.410271 54.6078 0.160684 55.1166 0.0596093C55.6254 -0.0414658 56.1527 0.0105036 56.632 0.208954C57.1113 0.407404 57.521 0.743433 57.8094 1.1746C58.0978 1.60577 58.252 2.11274 58.2524 2.63147V12.2545H67.8755C68.3942 12.255 68.9012 12.4092 69.3324 12.6976C69.7635 12.986 70.0996 13.3957 70.298 13.875C70.4965 14.3543 70.5484 14.8816 70.4474 15.3904C70.3463 15.8992 70.0967 16.3666 69.7301 16.7337L60.9819 25.4819C60.4902 25.9742 59.8231 26.2511 59.1273 26.2517H47.9645L41.9457 32.2705C42.3026 33.1104 42.4986 34.0307 42.4986 35ZM58.039 21.0028L61.5383 17.5035H55.6245C54.9284 17.5035 54.2609 17.227 53.7687 16.7348C53.2765 16.2426 53 15.5751 53 14.879V8.96521L49.5042 12.4645V20.7963C49.5771 20.8621 49.6461 20.9322 49.7106 21.0063H58.039V21.0028Z" fill="black"/>
</svg>
