<svg width="73" height="68" viewBox="0 0 73 68" fill="none" xmlns="http://www.w3.org/2000/svg">
<path d="M30.6875 0C27.2227 0.0119555 23.9034 1.36011 21.4534 3.75043C19.0034 6.14075 17.6216 9.37928 17.6094 12.7597C17.6094 15.0281 18.2691 17.1348 19.3357 18.9637C14.1015 21.9523 10.0037 26.1942 7.80078 31.1903H7.4375C7.24548 31.1946 7.05456 31.1608 6.87628 31.0911C6.69801 31.0213 6.53607 30.9171 6.40025 30.7846C6.26444 30.6521 6.15756 30.4941 6.08608 30.3201C6.0146 30.1462 5.98 29.9599 5.98438 29.7726C5.98438 29.2735 6.24594 28.8766 6.62084 28.6214L3.25831 24.0137C2.30609 24.6597 1.52811 25.5208 0.990691 26.5236C0.453269 27.5263 0.172347 28.641 0.171875 29.7726C0.171875 33.2602 2.83981 36.1184 6.25756 36.6855C6.10934 37.6779 5.98438 38.6675 5.98438 39.6968C5.98438 46.7628 9.83225 52.8874 15.4297 57.4185C14.7264 60.254 15.078 63.2766 17.3362 65.4826C19.0033 67.0952 21.2559 68 23.6035 68C25.9511 68 28.2037 67.0952 29.8708 65.4826L30.9607 64.4193C33.2305 64.8276 35.5119 65.2161 37.9531 65.2161C40.3944 65.2161 42.6758 64.8276 44.9456 64.4193L46.0354 65.4826C47.7026 67.0952 49.9551 68 52.3027 68C54.6503 68 56.9029 67.0952 58.5701 65.4826C60.7817 63.322 61.113 60.3873 60.4766 57.5943C62.8071 55.7476 64.8025 53.5315 66.3792 51.0387H72.8281V28.3548H66.199C65.1437 26.6836 63.8934 25.1374 62.4732 23.7472L64.1094 14.9742V11.3419H61.2031C61.2031 11.3419 54.2223 11.4554 48.3052 15.7738C46.7516 15.3365 45.1751 14.9807 43.5825 14.7077C43.6988 14.0782 43.7656 13.4232 43.7656 12.7597C43.7656 5.74752 37.8747 0 30.6875 0ZM30.6875 5.67097C34.7272 5.67097 37.9531 8.81835 37.9531 12.7597C37.9531 13.2474 37.863 13.7124 37.77 14.1774C33.0822 14.2001 28.656 15.0848 24.6047 16.5706C23.833 15.4423 23.4214 14.1161 23.4219 12.7597C23.4219 8.81835 26.6478 5.67097 30.6875 5.67097ZM57.5703 17.546C57.6168 17.5346 57.6168 17.5545 57.6604 17.546L56.5706 24.0109L56.3003 25.5193L57.5703 26.5827C59.5109 28.2223 61.1136 30.2076 62.293 32.4323L63.1096 34.0258H67.0156V45.3677H63.1096L62.293 46.9641C60.8747 49.6975 58.6369 52.102 55.7539 54.1379L53.6643 55.6464L54.9372 57.9516C55.6289 59.0915 55.504 60.4979 54.481 61.496C54.2051 61.7766 53.8739 61.9999 53.5073 62.1524C53.1407 62.305 52.7463 62.3836 52.3478 62.3836C51.9492 62.3836 51.5548 62.305 51.1882 62.1524C50.8216 61.9999 50.4905 61.7766 50.2146 61.496L48.125 59.4544L46.9451 58.3939L45.3989 58.7484C43.0391 59.2786 40.531 59.5451 37.9531 59.5451C35.4474 59.554 32.9486 59.2867 30.5044 58.7484L28.9641 58.3939L27.7812 59.4572L25.6917 61.4931C25.4158 61.7742 25.0844 61.9979 24.7175 62.1507C24.3507 62.3035 23.9559 62.3823 23.557 62.3823C23.1581 62.3823 22.7634 62.3035 22.3965 62.1507C22.0296 61.9979 21.6983 61.7742 21.4224 61.4931C20.9441 61.0412 20.6383 60.4435 20.5559 59.7988C20.4734 59.1542 20.6192 58.5015 20.969 57.9488L22.2419 55.6464L20.1523 54.1407C14.8949 50.4149 11.7969 45.3337 11.7969 39.6968C11.7969 29.0864 23.1603 19.8484 37.9531 19.8484C41.5278 19.8484 44.9339 20.3701 48.0349 21.354L49.5781 21.8871L50.8511 20.8238C52.9261 19.0176 55.4923 18.045 57.5703 17.546ZM55.3906 34.0258C53.7922 34.0258 52.4844 35.3018 52.4844 36.8613C52.4844 38.4208 53.7922 39.6968 55.3906 39.6968C56.9891 39.6968 58.2969 38.4208 58.2969 36.8613C58.2969 35.3018 56.9891 34.0258 55.3906 34.0258Z" fill="black"/>
</svg>
