<svg width="61" height="60" viewBox="0 0 61 60" fill="none" xmlns="http://www.w3.org/2000/svg">
<path d="M17.66 43.387L22.943 41.8631L54.7519 9.67494C55.0028 9.41785 55.1425 9.07238 55.1408 8.71316C55.1391 8.35394 54.9962 8.00979 54.7429 7.75506L52.8379 5.82917C52.7148 5.70269 52.5678 5.60199 52.4053 5.53296C52.2429 5.46393 52.0683 5.42794 51.8918 5.4271C51.7153 5.42627 51.5404 5.46059 51.3773 5.52808C51.2142 5.59557 51.0662 5.69486 50.9419 5.82017L19.217 37.9243L17.657 43.384L17.66 43.387ZM56.6089 2.01339L58.5139 3.94228C61.1419 6.60313 61.1659 10.8959 58.5619 13.5297L25.784 46.7018L14.492 49.9536C13.8026 50.1465 13.0648 50.0581 12.4405 49.7078C11.8162 49.3574 11.3564 48.7737 11.162 48.0847C11.0173 47.5893 11.0153 47.0633 11.156 46.5668L14.441 35.0475L47.1319 1.9624C47.7536 1.33651 48.4936 0.840648 49.3089 0.503739C50.1241 0.166831 50.9983 -0.00438247 51.8805 8.52336e-05C52.7626 0.00455294 53.6351 0.184612 54.4469 0.529761C55.2587 0.87491 55.9937 1.37824 56.6089 2.01039V2.01339ZM22.052 5.47219C23.54 5.47219 24.746 6.69312 24.746 8.19903C24.7483 8.55502 24.6805 8.90798 24.5464 9.23773C24.4122 9.56748 24.2144 9.86757 23.9642 10.1208C23.714 10.3741 23.4163 10.5755 23.0882 10.7137C22.7601 10.8518 22.408 10.9239 22.052 10.9259H11.276C8.29999 10.9259 5.88799 13.3677 5.88799 16.3766V49.0926C5.88799 52.1045 8.29999 54.5463 11.276 54.5463H43.6039C46.5799 54.5463 48.9949 52.1045 48.9949 49.0926V38.1883C48.9949 36.6824 50.2009 35.4614 51.6889 35.4614C53.1769 35.4614 54.3829 36.6824 54.3829 38.1913V49.0926C54.3829 55.1163 49.5559 60 43.6039 60H11.276C5.32399 60 0.5 55.1163 0.5 49.0926V16.3766C0.5 10.3559 5.32399 5.47219 11.276 5.47219H22.052Z" fill="black"/>
</svg>
